<?xml version="1.0" standalone="no"?>
<!DOCTYPE svg PUBLIC "-//W3C//DTD SVG 20010904//EN"
 "http://www.w3.org/TR/2001/REC-SVG-20010904/DTD/svg10.dtd">
<svg version="1.0" xmlns="http://www.w3.org/2000/svg"
 width="700.000000pt" height="700.000000pt" viewBox="0 0 700.000000 700.000000"
 preserveAspectRatio="xMidYMid meet">
<metadata>
Created by potrace 1.11, written by Peter Selinger 2001-2013
</metadata>
<g transform="translate(0.000000,700.000000) scale(0.100000,-0.100000)"
fill="#000000" stroke="none">
<path d="M955 5540 l-80 -5 0 -287 c0 -249 2 -288 15 -288 21 -1 2259 -1 2293
-1 l27 1 0 290 0 290 -27 1 c-176 3 -2169 3 -2228 -1z"/>
<path d="M3943 5542 l-153 -3 0 -2039 0 -2040 73 0 c746 -3 2251 0 2256 5 3 4
6 922 6 2041 0 2028 0 2034 -20 2034 -138 3 -2050 4 -2162 2z"/>
<path d="M881 4370 c-4 -3 -7 -133 -6 -290 l0 -285 1168 -3 1167 -2 0 290 c0
159 -3 291 -7 291 -25 4 -2316 3 -2322 -1z"/>
<path d="M879 3208 c-4 -9 -3 -578 1 -579 14 -4 2307 -5 2318 -1 9 3 12 71 12
293 l0 289 -1165 0 c-641 0 -1166 -1 -1166 -2z"/>
<path d="M892 2039 c-16 -5 -17 -31 -17 -293 l0 -286 35 0 c57 -1 2065 -1
2188 0 l112 0 0 290 c0 225 -3 290 -12 291 -89 4 -2293 2 -2306 -2z"/>
</g>
</svg>
